<svg width="41" height="50" viewBox="0 0 41 50" fill="none" xmlns="http://www.w3.org/2000/svg">
<path d="M8.43785 45.3264C17.4368 37.5146 26.8223 28.9595 39.1907 27.7929C35.087 32.0682 31.578 37.2035 26.5936 40.4723C21.2317 43.9859 14.6987 44.8826 8.47674 45.7198C8.4653 45.5871 8.44929 45.4568 8.43785 45.3264ZM10.2633 25.3315C12.3632 17.3322 16.0002 10.0947 19.5527 2.70382C19.9507 10.2525 21.282 18.3158 19.0792 25.6449C16.9747 32.6537 12.0818 38.1963 8.36236 44.3565C7.93003 37.963 8.62085 31.5855 10.2633 25.3315ZM1.61202 21.1523C2.79693 16.7512 5.90332 13.9674 9.24304 11.1011C12.3037 8.47283 15.4604 5.91543 18.4501 3.19105C14.2984 10.0215 11.0113 17.6365 8.96397 25.3064C7.3513 31.3545 6.55526 37.7365 7.06765 43.9996C3.2407 36.9519 -0.60226 29.3529 1.61202 21.1523ZM37.3012 27.173C26.573 28.8703 17.6564 35.9454 9.90183 43.3431C11.5854 41.0305 13.1569 38.6103 14.6941 36.2314C15.8287 34.4792 16.9084 32.6766 17.8417 30.8055C23.6679 27.6144 30.6813 26.1573 37.3012 27.173ZM8.89534 49.1739C8.76725 48.3436 8.66431 47.5132 8.5751 46.6851C14.765 45.8639 21.2226 44.9306 26.6187 41.5726C29.3065 39.9028 31.5322 37.6427 33.6161 35.2843C35.7755 32.8436 37.9143 30.3388 39.8792 27.7357C39.9318 27.7311 39.9799 27.7242 40.0325 27.7219C40.4145 27.6945 40.554 27.2073 40.323 26.9785C40.291 26.9122 40.2178 26.871 40.14 26.8824C40.1286 26.8802 40.1217 26.8779 40.1102 26.8756C32.6233 25.5191 25.1776 26.2557 18.3861 29.68C18.9236 28.5043 19.404 27.3056 19.7929 26.0704C20.9343 22.4333 21.1173 18.6292 21.0281 14.8457C20.9229 10.4401 20.6781 6.02294 20.3831 1.62641C20.3785 1.55321 20.3579 1.48917 20.3282 1.43655C20.3442 1.42054 20.3602 1.40681 20.3762 1.3908C20.4791 1.29244 20.3991 1.13918 20.2916 1.10258C20.2847 0.885272 19.969 0.775472 19.8249 0.999645C19.6694 1.23983 19.5184 1.48002 19.3628 1.72249C15.2385 4.85404 11.3429 8.33558 7.38561 11.6707C4.25863 14.3059 1.75842 17.1515 0.708465 21.1866C-1.57901 30.0094 2.84954 38.7819 7.2964 46.1613C7.43822 47.2296 7.61893 48.2955 7.8431 49.3523C7.96892 49.9425 8.99142 49.7755 8.89534 49.1739" fill="#DE0351"/>
</svg>
